<svg width="14" height="18" viewBox="0 0 14 18" fill="none" xmlns="http://www.w3.org/2000/svg">
<g id="software">
<g id="apple">
<path id="Vector" d="M9.74925 3.25C9.29218 3.84035 8.65869 4.26948 7.94092 4.475C7.84726 4.5033 7.74816 4.50859 7.65202 4.49043C7.55588 4.47227 7.46554 4.43118 7.38866 4.37066C7.31178 4.31014 7.25064 4.23197 7.21041 4.14278C7.17018 4.05359 7.15206 3.95602 7.15759 3.85833C7.24242 3.14182 7.53172 2.46487 7.99092 1.90833C8.44925 1.36235 9.04462 0.948173 9.71592 0.708332C9.81739 0.668574 9.92759 0.656418 10.0353 0.673101C10.143 0.689785 10.2443 0.734713 10.329 0.80331C10.4137 0.871907 10.4787 0.961722 10.5174 1.06361C10.5561 1.1655 10.5671 1.27581 10.5493 1.38333C10.4357 2.06658 10.1487 2.70927 9.71592 3.25H9.74925ZM12.6493 7.41667C12.7359 7.33257 12.8032 7.23065 12.8465 7.11797C12.8899 7.00529 12.9082 6.88454 12.9003 6.76407C12.8924 6.64361 12.8584 6.5263 12.8006 6.42027C12.7429 6.31424 12.6628 6.22202 12.5659 6.15C11.9871 5.67452 11.2786 5.38416 10.5326 5.31666C9.39925 5.24166 8.48259 5.98333 7.39092 5.98333C6.29925 5.98333 5.62425 5.31666 4.41592 5.31666C3.7498 5.35833 3.10437 5.56431 2.53726 5.91621C1.97015 6.26811 1.49901 6.75498 1.16592 7.33333C0.0159189 9.06666 0.215919 12.3333 2.04092 15.1833C2.69925 16.1917 3.57425 17.3333 4.72425 17.3333C5.74092 17.3333 6.02425 16.675 7.40759 16.675C8.79092 16.675 9.07425 17.3417 10.0659 17.3333C11.2159 17.3333 12.1326 16.0667 12.7909 15.0583C13.046 14.6803 13.2744 14.2849 13.4743 13.875C13.5536 13.6942 13.5662 13.491 13.5098 13.3017C13.4533 13.1125 13.3314 12.9494 13.1659 12.8417C12.7272 12.5557 12.3586 12.1745 12.0875 11.7265C11.8164 11.2784 11.6499 10.775 11.6002 10.2537C11.5506 9.73235 11.6191 9.20654 11.8007 8.71537C11.9824 8.22419 12.2724 7.78028 12.6493 7.41667V7.41667Z" fill="black"/>
</g>
</g>
</svg>
