<svg width="18" height="18" viewBox="0 0 18 18" fill="none" xmlns="http://www.w3.org/2000/svg">
<g id="users">
<g id="profile-circle">
<path id="Vector" opacity="0.3" d="M8.99935 17.3333C13.6017 17.3333 17.3327 13.6024 17.3327 8.99999C17.3327 4.39762 13.6017 0.666656 8.99935 0.666656C4.39698 0.666656 0.666016 4.39762 0.666016 8.99999C0.666016 13.6024 4.39698 17.3333 8.99935 17.3333Z" fill="#A1A5B7"/>
<path id="Vector_2" d="M8.9987 10.6167C10.7476 10.6167 12.1654 9.19889 12.1654 7.44999C12.1654 5.70109 10.7476 4.28333 8.9987 4.28333C7.2498 4.28333 5.83203 5.70109 5.83203 7.44999C5.83203 9.19889 7.2498 10.6167 8.9987 10.6167Z" fill="#A1A5B7"/>
<path id="Vector_3" d="M8.9987 17.3333C10.9868 17.3356 12.9093 16.6228 14.4154 15.325C14.0249 14.1994 13.2934 13.2234 12.3227 12.5326C11.3519 11.8419 10.1901 11.4707 8.9987 11.4707C7.80728 11.4707 6.64545 11.8419 5.6747 12.5326C4.70395 13.2234 3.97251 14.1994 3.58203 15.325C5.08808 16.6228 7.01064 17.3356 8.9987 17.3333Z" fill="#A1A5B7"/>
</g>
</g>
</svg>
