<svg width="120" height="18" viewBox="0 0 120 18" fill="none" xmlns="http://www.w3.org/2000/svg">
<g id="METRONIC 9" clip-path="url(#clip0_61_1344)">
<path id="Vector" d="M0.529297 16.4346H4.2904L4.76053 9.55348C4.84601 8.3995 4.76053 6.98909 4.76053 6.98909H4.80327C4.80327 6.98909 5.31615 8.59183 5.65807 9.55348L7.26081 13.977H10.4663L12.069 9.55348C12.4109 8.59183 12.9238 6.98909 12.9238 6.98909H12.9665C12.9665 6.98909 12.8811 8.3995 12.9665 9.55348L13.4367 16.4346H17.1764L15.937 1.15512H11.8767L9.65422 7.60882C9.3123 8.59183 8.8849 10.1305 8.8849 10.1305H8.84216C8.84216 10.1305 8.41476 8.59183 8.07286 7.60882L5.8504 1.15512H1.79012L0.529297 16.4346ZM20.9443 16.4346H30.8172V13.2291H24.684V10.3442H29.3427V7.13868H24.684V4.3606H30.518V1.15512H20.9443V16.4346ZM37.0763 16.4346H40.816V4.3606H45.4533V1.15512H32.439V4.3606H37.0763V16.4346ZM47.9789 16.4346H51.7187V11.2844H53.471L56.185 16.4346H60.3521L57.3817 11.0921C57.0184 10.451 56.8047 10.1732 56.8047 10.1732V10.1305C58.3219 9.36115 59.0913 7.58745 59.0913 5.96334C59.0913 3.74087 58.0014 2.18087 56.2704 1.51841C55.608 1.26197 54.86 1.15512 53.3 1.15512H47.9789V16.4346ZM51.7187 8.07896V4.3606H52.9795C54.86 4.3606 55.2874 5.04444 55.2874 6.19841C55.2874 7.41649 54.5395 8.07896 53.3428 8.07896H51.7187ZM62.0977 8.69868C62.0977 13.1864 65.4742 16.691 70.0901 16.691C74.706 16.691 78.0824 13.1864 78.0824 8.69868C78.0824 4.31786 74.706 0.898682 70.0901 0.898682C65.4742 0.898682 62.0977 4.31786 62.0977 8.69868ZM65.9657 8.69868C65.9657 6.19841 67.8035 4.31786 70.0901 4.31786C72.3767 4.31786 74.2145 6.19841 74.2145 8.69868C74.2145 11.3058 72.3767 13.2718 70.0901 13.2718C67.8035 13.2718 65.9657 11.3058 65.9657 8.69868ZM81.2742 16.4346H85.0136V9.31841C85.0136 8.35676 84.8427 6.71129 84.8427 6.71129H84.8854C84.8854 6.71129 85.5693 8.31402 86.1676 9.31841L90.4202 16.4346H94.1813V1.15512H90.4416V8.29265C90.4416 9.2543 90.6125 10.8998 90.6125 10.8998H90.5698C90.5698 10.8998 89.886 9.29704 89.2876 8.29265L85.0564 1.15512H81.2742V16.4346ZM98.4224 16.4346H102.162V1.15512H98.4224V16.4346ZM105.341 8.76279C105.341 13.2932 108.568 16.691 113.355 16.691C117.351 16.691 119.51 14.1266 119.51 14.1266L117.586 11.3913C117.586 11.3913 115.834 13.2718 113.526 13.2718C110.705 13.2718 109.209 10.9425 109.209 8.67731C109.209 6.47622 110.598 4.31786 113.526 4.31786C115.642 4.31786 117.351 5.87786 117.351 5.87786L119.082 3.05704C119.082 3.05704 117.137 0.898682 113.355 0.898682C108.76 0.898682 105.341 4.31786 105.341 8.76279Z" fill="white"/>
</g>
<defs>
<clipPath id="clip0_61_1344">
<rect width="120" height="16.4384" fill="white" transform="translate(0 0.818146)"/>
</clipPath>
</defs>
</svg>
